<svg xmlns="http://www.w3.org/2000/svg" xmlns:xlink="http://www.w3.org/1999/xlink" width="500" zoomAndPan="magnify" viewBox="0 0 375 374.999991" height="500" preserveAspectRatio="xMidYMid meet" version="1.0"><defs><clipPath id="619aed9fa3"><path d="M 107.289062 165 L 213 165 L 213 283.4375 L 107.289062 283.4375 Z M 107.289062 165 " clip-rule="nonzero"/></clipPath><clipPath id="c458387de0"><path d="M 162 164 L 267.789062 164 L 267.789062 283 L 162 283 Z M 162 164 " clip-rule="nonzero"/></clipPath><clipPath id="45c399d75b"><path d="M 126 91.4375 L 250 91.4375 L 250 215 L 126 215 Z M 126 91.4375 " clip-rule="nonzero"/></clipPath></defs><g clip-path="url(#619aed9fa3)"><path fill="#db2f14" d="M 149.773438 165.652344 L 212.578125 196.144531 L 170.101562 283.4375 L 150.972656 242.136719 L 107.300781 252.945312 L 149.773438 165.652344 " fill-opacity="1" fill-rule="evenodd"/></g><path fill="#ff430e" d="M 158.972656 170.976562 L 202.753906 191.390625 L 170.667969 258.453125 L 158.25 228.875 L 126.101562 237.574219 L 158.972656 170.976562 " fill-opacity="1" fill-rule="evenodd"/><g clip-path="url(#c458387de0)"><path fill="#db2f14" d="M 224.988281 164.289062 L 162.296875 195.011719 L 205.09375 282.148438 L 224.070312 240.777344 L 267.785156 251.429688 L 224.988281 164.289062 " fill-opacity="1" fill-rule="evenodd"/></g><path fill="#ff430e" d="M 215.8125 169.648438 L 172.105469 190.222656 L 204.433594 257.167969 L 216.742188 227.542969 L 248.925781 236.125 L 215.8125 169.648438 " fill-opacity="1" fill-rule="evenodd"/><g clip-path="url(#45c399d75b)"><path fill="#ffc50d" d="M 187.542969 91.441406 C 221.476562 91.441406 249.027344 118.964844 249.027344 152.863281 C 249.027344 186.757812 221.476562 214.28125 187.542969 214.28125 C 153.605469 214.28125 126.054688 186.757812 126.054688 152.863281 C 126.054688 118.964844 153.605469 91.441406 187.542969 91.441406 " fill-opacity="1" fill-rule="evenodd"/></g><path fill="#f59f0a" d="M 187.542969 104.667969 C 213.714844 104.667969 234.964844 126.261719 234.964844 152.863281 C 234.964844 179.460938 213.714844 201.054688 187.542969 201.054688 C 161.367188 201.054688 140.121094 179.460938 140.121094 152.863281 C 140.121094 126.261719 161.367188 104.667969 187.542969 104.667969 " fill-opacity="1" fill-rule="evenodd"/><path fill="#faf29f" d="M 147.984375 124.992188 C 148.050781 124.789062 148.257812 124.648438 148.492188 124.648438 C 148.726562 124.648438 148.929688 124.789062 149 124.992188 L 150.957031 130.835938 L 157.292969 132.640625 C 157.515625 132.703125 157.667969 132.894531 157.667969 133.109375 C 157.667969 133.324219 157.515625 133.515625 157.292969 133.578125 L 150.957031 135.382812 L 149 141.226562 C 148.929688 141.429688 148.726562 141.570312 148.492188 141.570312 C 148.257812 141.570312 148.050781 141.429688 147.984375 141.226562 L 146.027344 135.382812 L 139.691406 133.578125 C 139.46875 133.515625 139.316406 133.324219 139.316406 133.109375 C 139.316406 132.894531 139.46875 132.703125 139.691406 132.640625 L 146.027344 130.835938 L 147.984375 124.992188 " fill-opacity="1" fill-rule="evenodd"/><path fill="#faf29f" d="M 225.683594 171.988281 C 225.753906 171.78125 225.960938 171.640625 226.199219 171.640625 C 226.4375 171.640625 226.644531 171.78125 226.714844 171.988281 L 228.703125 177.917969 L 235.128906 179.75 C 235.355469 179.816406 235.511719 180.007812 235.511719 180.226562 C 235.511719 180.445312 235.355469 180.636719 235.128906 180.703125 L 228.703125 182.535156 L 226.714844 188.460938 C 226.644531 188.671875 226.4375 188.8125 226.199219 188.8125 C 225.960938 188.8125 225.753906 188.671875 225.683594 188.460938 L 223.695312 182.535156 L 217.269531 180.703125 C 217.042969 180.636719 216.886719 180.445312 216.886719 180.226562 C 216.886719 180.007812 217.042969 179.816406 217.269531 179.75 L 223.695312 177.917969 L 225.683594 171.988281 " fill-opacity="1" fill-rule="evenodd"/><path fill="#faf29f" d="M 138.804688 137.003906 C 138.847656 136.863281 138.988281 136.769531 139.144531 136.769531 C 139.300781 136.769531 139.4375 136.863281 139.484375 137.003906 L 140.800781 140.925781 L 145.050781 142.132812 C 145.199219 142.175781 145.300781 142.304688 145.300781 142.449219 C 145.300781 142.59375 145.199219 142.71875 145.050781 142.761719 L 140.800781 143.972656 L 139.484375 147.894531 C 139.4375 148.035156 139.300781 148.128906 139.144531 148.128906 C 138.988281 148.128906 138.847656 148.035156 138.804688 147.894531 L 137.492188 143.972656 L 133.238281 142.761719 C 133.089844 142.71875 132.988281 142.59375 132.988281 142.449219 C 132.988281 142.304688 133.089844 142.175781 133.238281 142.132812 L 137.492188 140.925781 L 138.804688 137.003906 " fill-opacity="1" fill-rule="evenodd"/><path fill="#faf29f" d="M 234.859375 162.230469 C 234.910156 162.078125 235.0625 161.972656 235.234375 161.972656 C 235.40625 161.972656 235.558594 162.078125 235.609375 162.230469 L 237.046875 166.527344 L 241.710938 167.855469 C 241.875 167.902344 241.984375 168.042969 241.984375 168.199219 C 241.984375 168.359375 241.875 168.5 241.710938 168.546875 L 237.046875 169.875 L 235.609375 174.171875 C 235.558594 174.324219 235.40625 174.429688 235.234375 174.429688 C 235.0625 174.429688 234.910156 174.324219 234.859375 174.171875 L 233.421875 169.875 L 228.757812 168.546875 C 228.59375 168.5 228.484375 168.359375 228.484375 168.199219 C 228.484375 168.042969 228.59375 167.902344 228.757812 167.855469 L 233.421875 166.527344 L 234.859375 162.230469 " fill-opacity="1" fill-rule="evenodd"/><path fill="#faf29f" d="M 183.183594 173.644531 C 183.183594 177.753906 186.59375 179.941406 190.167969 179.914062 C 193.726562 179.886719 197.113281 177.636719 197.113281 173.644531 L 197.113281 134.046875 C 197.113281 130.519531 195.839844 128.375 194.222656 127.269531 C 192.496094 126.089844 190.175781 125.929688 187.734375 126.96875 C 187.742188 126.96875 177.855469 130.609375 177.855469 130.609375 C 175.042969 131.550781 173.59375 133.382812 173.058594 135.304688 C 171.777344 139.902344 176 145.511719 181.945312 143.582031 C 181.992188 143.566406 182.039062 143.550781 182.085938 143.53125 L 183.183594 143.089844 L 183.183594 173.644531 " fill-opacity="1" fill-rule="nonzero"/></svg>