<svg xmlns="http://www.w3.org/2000/svg" xmlns:xlink="http://www.w3.org/1999/xlink" width="500" zoomAndPan="magnify" viewBox="0 0 375 374.999991" height="500" preserveAspectRatio="xMidYMid meet" version="1.0"><defs><clipPath id="a3e36b4f9f"><path d="M 243 189 L 280.425781 189 L 280.425781 206 L 243 206 Z M 243 189 " clip-rule="nonzero"/></clipPath><clipPath id="fa7d44ba26"><path d="M 243 189 L 280.425781 189 L 280.425781 198 L 243 198 Z M 243 189 " clip-rule="nonzero"/></clipPath><clipPath id="c31d655b1e"><path d="M 153 94.308594 L 213 94.308594 L 213 166 L 153 166 Z M 153 94.308594 " clip-rule="nonzero"/></clipPath><clipPath id="074289e69d"><path d="M 153 94.308594 L 211 94.308594 L 211 165 L 153 165 Z M 153 94.308594 " clip-rule="nonzero"/></clipPath><clipPath id="91eefb2955"><path d="M 94.425781 159 L 186 159 L 186 252 L 94.425781 252 Z M 94.425781 159 " clip-rule="nonzero"/></clipPath><clipPath id="ca71ed47ee"><path d="M 94.425781 159 L 181 159 L 181 252 L 94.425781 252 Z M 94.425781 159 " clip-rule="nonzero"/></clipPath></defs><path fill="#ffcec0" d="M 245.304688 173.46875 L 264.03125 173.46875 L 264.03125 234.609375 L 255.535156 235.40625 C 244.058594 236.3125 229.578125 238.550781 218.367188 236.507812 C 210.050781 234.984375 207.914062 232.488281 196.023438 232.488281 C 195.679688 232.488281 193.355469 232.476562 191.328125 232.476562 L 191.328125 178.746094 C 223.015625 176.679688 229.234375 162.84375 226.882812 134.8125 C 226.734375 133.058594 228.007812 131.496094 229.757812 131.296875 C 251.019531 128.902344 246.613281 163.242188 245.304688 173.46875 Z M 245.304688 173.46875 " fill-opacity="1" fill-rule="evenodd"/><path fill="#ffc0b1" d="M 191.328125 184.433594 L 191.328125 178.746094 C 223.015625 176.679688 229.234375 162.84375 226.882812 134.8125 C 226.734375 133.058594 228.007812 131.496094 229.757812 131.296875 C 231.648438 131.085938 233.339844 131.167969 234.84375 131.496094 C 233.527344 132.003906 232.652344 133.335938 232.777344 134.8125 C 234.3125 153.105469 236.082031 183.585938 191.328125 184.433594 Z M 191.328125 184.433594 " fill-opacity="1" fill-rule="evenodd"/><path fill="#fdb0a0" d="M 264.03125 173.46875 C 263.8125 179.859375 262.320312 191.882812 246.507812 192.03125 C 243.421875 197.695312 238.644531 202.296875 231.601562 204.621094 C 226.691406 205.941406 224.957031 199.953125 229.027344 198.609375 C 234.535156 196.796875 238.273438 193.195312 240.683594 188.761719 C 243.226562 184.09375 245.132812 178.992188 245.34375 173.46875 Z M 264.03125 173.46875 " fill-opacity="1" fill-rule="evenodd"/><path fill="#fdb0a0" d="M 254.570312 173.46875 L 270.253906 173.46875 C 274.617188 173.46875 278.160156 177.019531 278.160156 181.394531 C 278.160156 185.769531 274.617188 189.324219 270.253906 189.324219 L 254.570312 189.324219 C 250.207031 189.324219 246.667969 185.769531 246.667969 181.398438 C 246.667969 177.023438 250.207031 173.46875 254.570312 173.46875 Z M 254.570312 173.46875 " fill-opacity="1" fill-rule="nonzero"/><path fill="#ffcec0" d="M 254.570312 173.46875 L 270.253906 173.46875 C 274.605469 173.46875 278.160156 177.035156 278.160156 181.394531 L 246.667969 181.394531 C 246.667969 177.035156 250.222656 173.46875 254.570312 173.46875 Z M 254.570312 173.46875 " fill-opacity="1" fill-rule="evenodd"/><path fill="#4eb1fc" d="M 173.488281 174.425781 L 194.695312 174.425781 C 197.117188 174.425781 199.085938 176.398438 199.085938 178.832031 L 199.085938 232.394531 C 199.085938 234.824219 197.117188 236.796875 194.695312 236.796875 L 173.488281 236.796875 C 171.0625 236.796875 169.09375 234.824219 169.09375 232.394531 L 169.09375 178.832031 C 169.09375 176.398438 171.0625 174.425781 173.488281 174.425781 Z M 173.488281 174.425781 " fill-opacity="1" fill-rule="nonzero"/><path fill="#85caff" d="M 173.488281 174.425781 L 185.539062 174.425781 C 187.964844 174.425781 189.933594 176.398438 189.933594 178.832031 L 189.933594 232.394531 C 189.933594 234.824219 187.964844 236.796875 185.539062 236.796875 L 173.488281 236.796875 C 171.0625 236.796875 169.097656 234.824219 169.097656 232.394531 L 169.097656 178.832031 C 169.097656 176.398438 171.0625 174.429688 173.488281 174.429688 Z M 173.488281 174.425781 " fill-opacity="1" fill-rule="nonzero"/><g clip-path="url(#a3e36b4f9f)"><path fill="#fdb0a0" d="M 251.503906 189.324219 L 272.40625 189.324219 C 276.769531 189.324219 280.3125 192.875 280.3125 197.25 C 280.3125 201.625 276.769531 205.179688 272.40625 205.179688 L 251.503906 205.179688 C 247.140625 205.179688 243.597656 201.625 243.597656 197.25 C 243.597656 192.875 247.140625 189.324219 251.503906 189.324219 Z M 251.503906 189.324219 " fill-opacity="1" fill-rule="nonzero"/></g><g clip-path="url(#fa7d44ba26)"><path fill="#ffcec0" d="M 251.503906 189.324219 L 272.40625 189.324219 C 276.757812 189.324219 280.3125 192.890625 280.3125 197.25 L 243.597656 197.25 C 243.597656 192.890625 247.152344 189.324219 251.503906 189.324219 Z M 251.503906 189.324219 " fill-opacity="1" fill-rule="evenodd"/></g><path fill="#fdb0a0" d="M 252.132812 205.179688 L 270.140625 205.179688 C 274.503906 205.179688 278.042969 208.730469 278.042969 213.105469 C 278.042969 217.488281 274.503906 221.035156 270.140625 221.035156 L 252.132812 221.035156 C 247.769531 221.035156 244.230469 217.488281 244.230469 213.105469 C 244.230469 208.730469 247.769531 205.179688 252.132812 205.179688 Z M 252.132812 205.179688 " fill-opacity="1" fill-rule="nonzero"/><path fill="#ffcec0" d="M 252.132812 205.179688 L 270.140625 205.179688 C 274.484375 205.179688 278.042969 208.75 278.042969 213.105469 L 244.230469 213.105469 C 244.230469 208.75 247.789062 205.179688 252.132812 205.179688 Z M 252.132812 205.179688 " fill-opacity="1" fill-rule="evenodd"/><path fill="#fdb0a0" d="M 255.535156 221.035156 L 266.671875 221.035156 C 270.613281 221.035156 273.832031 224.269531 273.832031 228.21875 C 273.832031 232.171875 270.613281 235.40625 266.671875 235.40625 L 255.535156 235.40625 C 251.59375 235.40625 248.367188 232.171875 248.367188 228.21875 C 248.367188 224.269531 251.59375 221.035156 255.535156 221.035156 Z M 255.535156 221.035156 " fill-opacity="1" fill-rule="evenodd"/><path fill="#ffcec0" d="M 255.535156 221.035156 L 266.671875 221.035156 C 270.613281 221.035156 273.832031 224.269531 273.832031 228.21875 L 248.367188 228.21875 C 248.367188 224.269531 251.59375 221.035156 255.535156 221.035156 Z M 255.535156 221.035156 " fill-opacity="1" fill-rule="evenodd"/><g clip-path="url(#c31d655b1e)"><path fill="#2a92fa" d="M 187.609375 97.082031 C 193.199219 100.578125 200.105469 102.960938 206.476562 104.59375 L 212.882812 106.234375 L 212.882812 133.789062 C 212.882812 137.902344 211.851562 141.761719 209.753906 145.304688 C 204.980469 153.375 195.328125 158.484375 187.507812 163.230469 L 183.097656 165.898438 L 178.691406 163.230469 C 170.871094 158.484375 161.21875 153.375 156.445312 145.304688 C 154.347656 141.761719 153.308594 137.902344 153.308594 133.789062 L 153.308594 106.234375 L 159.726562 104.59375 C 166.09375 102.960938 173 100.578125 178.589844 97.082031 L 183.101562 94.257812 Z M 187.609375 97.082031 " fill-opacity="1" fill-rule="evenodd"/></g><g clip-path="url(#074289e69d)"><path fill="#4eb1fc" d="M 187.609375 97.082031 C 193.199219 100.578125 200.105469 102.960938 206.476562 104.59375 L 210.132812 105.53125 L 210.132812 132.683594 C 210.132812 136.796875 209.09375 140.65625 206.996094 144.199219 C 202.222656 152.265625 192.570312 157.378906 184.75 162.125 L 180.808594 164.507812 L 178.691406 163.230469 C 170.871094 158.484375 161.21875 153.375 156.445312 145.304688 C 154.347656 141.761719 153.308594 137.902344 153.308594 133.789062 L 153.308594 106.234375 L 159.726562 104.59375 C 166.09375 102.960938 173 100.578125 178.589844 97.082031 L 183.097656 94.257812 Z M 187.609375 97.082031 " fill-opacity="1" fill-rule="evenodd"/></g><path fill="#2a92fa" d="M 161.832031 112.867188 C 160.96875 113.113281 160.183594 113.320312 159.476562 113.496094 L 159.476562 134.417969 C 159.476562 137.003906 160.097656 139.347656 161.414062 141.570312 C 165.027344 147.671875 174.429688 153.011719 181.152344 157.089844 C 181.78125 156.703125 182.433594 156.316406 183.097656 155.917969 L 184.269531 154.964844 Z M 161.832031 112.867188 " fill-opacity="1" fill-rule="evenodd"/><path fill="#ffffff" d="M 183.097656 104.324219 C 175.667969 108.980469 166.667969 111.632812 161.832031 112.867188 L 161.832031 133.789062 C 161.832031 136.375 162.445312 138.71875 163.769531 140.941406 C 167.378906 147.042969 176.378906 151.84375 183.097656 155.917969 C 189.820312 151.84375 198.820312 147.042969 202.429688 140.941406 C 203.753906 138.71875 204.371094 136.375 204.371094 133.789062 L 204.371094 112.867188 C 199.53125 111.632812 190.53125 108.980469 183.097656 104.324219 Z M 183.097656 104.324219 " fill-opacity="1" fill-rule="evenodd"/><path fill="#e3f1ff" d="M 183.097656 155.917969 C 189.820312 151.84375 198.820312 147.042969 202.429688 140.941406 C 203.753906 138.71875 204.371094 136.375 204.371094 133.789062 L 204.371094 112.867188 C 199.53125 111.632812 190.53125 108.980469 183.097656 104.324219 Z M 183.097656 155.917969 " fill-opacity="1" fill-rule="evenodd"/><path fill="#43f043" d="M 172.082031 130.441406 C 171.347656 129.167969 171.777344 127.546875 173.046875 126.808594 C 174.308594 126.074219 175.933594 126.507812 176.664062 127.777344 L 179.300781 132.351562 L 189.949219 121.679688 C 190.988281 120.636719 192.667969 120.636719 193.703125 121.679688 C 194.742188 122.71875 194.742188 124.402344 193.703125 125.441406 L 180.613281 138.570312 C 179.398438 139.789062 177.316406 139.527344 176.445312 138.015625 Z M 172.082031 130.441406 " fill-opacity="1" fill-rule="evenodd"/><path fill="#2dd62d" d="M 160.710938 228.789062 L 180.773438 271.273438 L 166.5625 270.007812 L 157.515625 280.953125 L 141.683594 236.707031 Z M 160.710938 228.789062 " fill-opacity="1" fill-rule="evenodd"/><path fill="#43f043" d="M 160.710938 228.789062 L 178.875 267.261719 L 168.476562 266.335938 L 160.230469 275.753906 L 145.675781 235.050781 Z M 160.710938 228.789062 " fill-opacity="1" fill-rule="evenodd"/><path fill="#2dd62d" d="M 119.449219 228.71875 L 99.386719 271.199219 L 113.597656 269.929688 L 122.644531 280.875 L 138.476562 236.632812 Z M 119.449219 228.71875 " fill-opacity="1" fill-rule="evenodd"/><path fill="#43f043" d="M 119.449219 228.71875 L 101.285156 267.183594 L 111.683594 266.257812 L 119.929688 275.675781 L 134.492188 234.972656 Z M 119.449219 228.71875 " fill-opacity="1" fill-rule="evenodd"/><g clip-path="url(#91eefb2955)"><path fill="#f9ac00" d="M 130.179688 165.042969 C 127.507812 168.8125 123.199219 170.601562 118.648438 169.828125 C 114.421875 169.117188 110.890625 169.890625 107.777344 173.011719 C 104.664062 176.132812 103.894531 179.675781 104.609375 183.914062 C 105.382812 188.472656 103.597656 192.796875 99.832031 195.472656 C 96.339844 197.964844 94.382812 201.019531 94.382812 205.429688 C 94.382812 209.84375 96.339844 212.898438 99.832031 215.390625 C 103.597656 218.0625 105.382812 222.386719 104.609375 226.945312 C 103.894531 231.1875 104.664062 234.730469 107.777344 237.851562 C 110.890625 240.972656 114.421875 241.746094 118.648438 241.023438 C 123.199219 240.253906 127.507812 242.042969 130.179688 245.816406 C 132.660156 249.320312 135.707031 251.28125 140.105469 251.28125 C 144.511719 251.28125 147.554688 249.320312 150.039062 245.816406 C 152.710938 242.042969 157.015625 240.253906 161.5625 241.023438 C 165.789062 241.746094 169.332031 240.972656 172.4375 237.851562 C 175.550781 234.730469 176.320312 231.1875 175.609375 226.945312 C 174.839844 222.386719 176.621094 218.0625 180.382812 215.390625 C 183.878906 212.898438 185.832031 209.84375 185.832031 205.429688 C 185.832031 201.019531 183.878906 197.964844 180.382812 195.472656 C 176.621094 192.796875 174.839844 188.472656 175.609375 183.914062 C 176.328125 179.675781 175.550781 176.125 172.4375 173.011719 C 169.332031 169.890625 165.789062 169.117188 161.5625 169.828125 C 157.015625 170.601562 152.710938 168.8125 150.039062 165.042969 C 147.554688 161.535156 144.503906 159.582031 140.105469 159.582031 C 135.707031 159.582031 132.660156 161.535156 130.175781 165.042969 Z M 130.179688 165.042969 " fill-opacity="1" fill-rule="evenodd"/></g><g clip-path="url(#ca71ed47ee)"><path fill="#fcdb35" d="M 130.179688 165.042969 C 127.507812 168.8125 123.199219 170.601562 118.648438 169.828125 C 114.421875 169.109375 110.890625 169.890625 107.777344 173.011719 C 104.664062 176.132812 103.894531 179.675781 104.609375 183.914062 C 105.382812 188.472656 103.597656 192.796875 99.832031 195.472656 C 96.339844 197.964844 94.382812 201.019531 94.382812 205.429688 C 94.382812 209.84375 96.339844 212.898438 99.832031 215.390625 C 103.597656 218.0625 105.382812 222.386719 104.609375 226.945312 C 103.894531 231.1875 104.664062 234.730469 107.777344 237.851562 C 110.890625 240.972656 114.421875 241.746094 118.648438 241.023438 C 123.199219 240.253906 127.507812 242.042969 130.179688 245.816406 C 132.148438 248.59375 134.46875 250.402344 137.539062 251.03125 C 140.609375 250.402344 142.933594 248.59375 144.902344 245.816406 C 147.570312 242.042969 151.882812 240.253906 156.429688 241.023438 C 156.625 241.0625 156.8125 241.089844 157.011719 241.113281 C 158.460938 240.800781 160 240.757812 161.5625 241.023438 L 161.621094 241.039062 C 163.679688 240.609375 165.558594 239.597656 167.300781 237.851562 C 170.414062 234.730469 171.1875 231.1875 170.46875 226.945312 C 169.699219 222.386719 171.480469 218.0625 175.246094 215.390625 C 178.738281 212.898438 180.695312 209.84375 180.695312 205.429688 C 180.695312 201.019531 178.738281 197.964844 175.246094 195.472656 C 171.480469 192.796875 169.699219 188.472656 170.46875 183.914062 C 171.1875 179.675781 170.414062 176.125 167.300781 173.011719 C 165.558594 171.257812 163.679688 170.246094 161.621094 169.824219 L 161.5625 169.828125 C 160 170.097656 158.460938 170.0625 157.011719 169.742188 C 156.8125 169.769531 156.625 169.800781 156.429688 169.828125 C 151.882812 170.601562 147.570312 168.8125 144.902344 165.042969 C 142.933594 162.265625 140.609375 160.460938 137.539062 159.828125 C 134.46875 160.460938 132.148438 162.265625 130.179688 165.042969 Z M 130.179688 165.042969 " fill-opacity="1" fill-rule="evenodd"/></g><path fill="#f9ac00" d="M 137.457031 183.390625 C 149.640625 184.003906 159.027344 194.402344 158.414062 206.621094 C 157.804688 218.84375 147.433594 228.25 135.246094 227.636719 C 123.0625 227.023438 113.679688 216.625 114.292969 204.40625 C 114.898438 192.191406 125.273438 182.777344 137.457031 183.390625 Z M 137.457031 183.390625 " fill-opacity="1" fill-rule="nonzero"/><path fill="#ffffff" d="M 160.863281 197.839844 C 165.074219 209.320312 159.199219 222.054688 147.75 226.269531 C 136.292969 230.488281 123.601562 224.597656 119.390625 213.117188 C 115.179688 201.632812 121.058594 188.902344 132.503906 184.679688 C 143.960938 180.460938 156.652344 186.351562 160.863281 197.839844 Z M 160.863281 197.839844 " fill-opacity="1" fill-rule="nonzero"/><path fill="#43f043" d="M 129.089844 205.953125 C 128.355469 204.679688 128.789062 203.058594 130.050781 202.320312 C 131.320312 201.582031 132.9375 202.019531 133.671875 203.289062 L 136.3125 207.867188 L 146.953125 197.191406 C 147.992188 196.148438 149.675781 196.148438 150.714844 197.191406 C 151.75 198.230469 151.75 199.914062 150.714844 200.953125 L 137.621094 214.082031 C 136.40625 215.300781 134.324219 215.042969 133.453125 213.527344 Z M 129.089844 205.953125 " fill-opacity="1" fill-rule="evenodd"/></svg>