<svg xmlns="http://www.w3.org/2000/svg" xmlns:xlink="http://www.w3.org/1999/xlink" width="500" zoomAndPan="magnify" viewBox="0 0 375 374.999991" height="500" preserveAspectRatio="xMidYMid meet" version="1.0"><defs><clipPath id="a5b730ac39"><path d="M 160 130.6875 L 217 130.6875 L 217 187 L 160 187 Z M 160 130.6875 " clip-rule="nonzero"/></clipPath><clipPath id="365aa31ac8"><path d="M 139.292969 185.378906 L 237 185.378906 L 237 244.167969 L 139.292969 244.167969 Z M 139.292969 185.378906 " clip-rule="nonzero"/></clipPath><clipPath id="9bf84e10e6"><path d="M 217.242188 176.609375 L 283.828125 176.609375 L 283.828125 223.867188 L 217.242188 223.867188 Z M 217.242188 176.609375 " clip-rule="nonzero"/></clipPath></defs><g clip-path="url(#a5b730ac39)"><path fill="#f0dc4a" d="M 160.015625 158.902344 C 160.015625 143.390625 172.59375 130.816406 188.101562 130.816406 C 203.617188 130.816406 216.191406 143.390625 216.191406 158.902344 C 216.191406 174.414062 203.617188 186.988281 188.101562 186.988281 C 172.59375 186.988281 160.015625 174.414062 160.015625 158.902344 " fill-opacity="1" fill-rule="nonzero"/></g><g clip-path="url(#365aa31ac8)"><path fill="#f0dc4a" d="M 236.375 228.8125 L 232.371094 213.375 C 229.105469 200.792969 220.296875 190.816406 208.96875 185.777344 C 203.207031 190.261719 195.96875 192.9375 188.101562 192.9375 C 180.238281 192.9375 173 190.261719 167.234375 185.777344 C 155.910156 190.816406 147.101562 200.792969 143.835938 213.375 L 139.832031 228.8125 C 137.816406 236.582031 143.683594 244.167969 151.714844 244.167969 L 224.492188 244.167969 C 232.523438 244.167969 238.390625 236.582031 236.375 228.8125 " fill-opacity="1" fill-rule="nonzero"/></g><path fill="#f0dc4a" d="M 108.996094 155.304688 C 108.996094 142.890625 119.0625 132.824219 131.480469 132.824219 C 143.894531 132.824219 153.960938 142.890625 153.960938 155.304688 C 153.960938 167.722656 143.894531 177.785156 131.480469 177.785156 C 119.0625 177.785156 108.996094 167.722656 108.996094 155.304688 " fill-opacity="1" fill-rule="nonzero"/><path fill="#f0dc4a" d="M 138.6875 213.167969 C 141.808594 201.132812 149.253906 191.128906 159.101562 184.644531 C 156.03125 181.332031 152.320312 178.65625 148.179688 176.816406 C 143.566406 180.40625 137.773438 182.546875 131.480469 182.546875 C 125.179688 182.546875 119.386719 180.40625 114.777344 176.816406 C 105.710938 180.847656 98.660156 188.835938 96.046875 198.90625 L 92.839844 211.261719 C 91.226562 217.484375 95.921875 223.554688 102.351562 223.554688 L 135.992188 223.554688 L 138.6875 213.167969 " fill-opacity="1" fill-rule="nonzero"/><path fill="#f0dc4a" d="M 267.347656 155.304688 C 267.347656 142.890625 257.28125 132.824219 244.867188 132.824219 C 232.449219 132.824219 222.386719 142.890625 222.386719 155.304688 C 222.386719 167.722656 232.449219 177.785156 244.867188 177.785156 C 257.28125 177.785156 267.347656 167.722656 267.347656 155.304688 " fill-opacity="1" fill-rule="nonzero"/><g clip-path="url(#9bf84e10e6)"><path fill="#f0dc4a" d="M 237.65625 213.167969 C 234.535156 201.132812 227.089844 191.128906 217.246094 184.644531 C 220.3125 181.332031 224.027344 178.65625 228.164062 176.816406 C 232.777344 180.40625 238.570312 182.546875 244.867188 182.546875 C 251.164062 182.546875 256.953125 180.40625 261.570312 176.816406 C 270.632812 180.847656 277.683594 188.835938 280.296875 198.90625 L 283.503906 211.261719 C 285.117188 217.484375 280.421875 223.554688 273.992188 223.554688 L 240.355469 223.554688 L 237.65625 213.167969 " fill-opacity="1" fill-rule="nonzero"/></g></svg>