<svg xmlns="http://www.w3.org/2000/svg" xmlns:xlink="http://www.w3.org/1999/xlink" width="500" zoomAndPan="magnify" viewBox="0 0 375 374.999991" height="500" preserveAspectRatio="xMidYMid meet" version="1.0"><path fill="#231f20" d="M 245.554688 181.539062 C 245.546875 180.253906 245.667969 178.980469 245.914062 177.71875 C 246.164062 176.460938 246.53125 175.234375 247.019531 174.046875 C 247.511719 172.859375 248.113281 171.730469 248.828125 170.664062 C 249.542969 169.59375 250.355469 168.605469 251.265625 167.699219 C 251.867188 167.097656 252.441406 166.464844 252.980469 165.804688 C 253.523438 165.144531 254.027344 164.460938 254.503906 163.75 C 254.976562 163.039062 255.414062 162.308594 255.816406 161.554688 C 256.21875 160.804688 256.582031 160.03125 256.90625 159.246094 C 257.234375 158.457031 257.519531 157.652344 257.765625 156.835938 C 258.015625 156.019531 258.222656 155.195312 258.386719 154.359375 C 258.554688 153.519531 258.679688 152.679688 258.761719 151.828125 C 258.847656 150.980469 258.886719 150.128906 258.886719 149.277344 C 258.886719 148.421875 258.847656 147.574219 258.761719 146.722656 C 258.679688 145.875 258.554688 145.03125 258.386719 144.195312 C 258.222656 143.359375 258.015625 142.53125 257.765625 141.714844 C 257.519531 140.898438 257.234375 140.097656 256.90625 139.308594 C 256.582031 138.519531 256.21875 137.75 255.816406 136.996094 C 255.414062 136.246094 254.976562 135.511719 254.503906 134.804688 C 254.027344 134.09375 253.523438 133.410156 252.980469 132.75 C 252.441406 132.089844 251.867188 131.457031 251.265625 130.851562 C 250.351562 129.949219 249.539062 128.960938 248.820312 127.894531 C 248.105469 126.828125 247.5 125.699219 247.011719 124.511719 C 246.519531 123.320312 246.152344 122.097656 245.90625 120.835938 C 245.664062 119.574219 245.542969 118.300781 245.554688 117.011719 C 245.550781 116.160156 245.503906 115.3125 245.414062 114.464844 C 245.328125 113.617188 245.199219 112.773438 245.027344 111.941406 C 244.859375 111.105469 244.648438 110.28125 244.394531 109.464844 C 244.144531 108.652344 243.855469 107.851562 243.523438 107.066406 C 243.195312 106.277344 242.828125 105.511719 242.421875 104.761719 C 242.019531 104.011719 241.578125 103.28125 241.101562 102.574219 C 240.625 101.871094 240.113281 101.1875 239.570312 100.53125 C 239.027344 99.875 238.453125 99.246094 237.847656 98.644531 C 237.242188 98.042969 236.609375 97.472656 235.949219 96.9375 C 235.289062 96.398438 234.605469 95.890625 233.894531 95.421875 C 233.183594 94.949219 232.453125 94.511719 231.699219 94.113281 C 230.945312 93.714844 230.175781 93.351562 229.386719 93.027344 C 228.597656 92.703125 227.796875 92.417969 226.980469 92.171875 C 226.164062 91.925781 225.335938 91.722656 224.5 91.558594 C 223.664062 91.390625 222.820312 91.269531 221.972656 91.1875 C 221.121094 91.105469 220.273438 91.0625 219.417969 91.066406 C 218.132812 91.074219 216.859375 90.957031 215.597656 90.710938 C 214.335938 90.46875 213.109375 90.097656 211.917969 89.609375 C 210.730469 89.117188 209.601562 88.515625 208.535156 87.800781 C 207.464844 87.085938 206.480469 86.269531 205.574219 85.355469 C 204.96875 84.753906 204.335938 84.183594 203.675781 83.640625 C 203.015625 83.101562 202.332031 82.59375 201.621094 82.121094 C 200.910156 81.648438 200.179688 81.210938 199.425781 80.808594 C 198.671875 80.40625 197.902344 80.042969 197.113281 79.71875 C 196.324219 79.390625 195.523438 79.105469 194.707031 78.859375 C 193.890625 78.609375 193.0625 78.402344 192.226562 78.238281 C 191.386719 78.070312 190.542969 77.945312 189.695312 77.863281 C 188.847656 77.78125 187.996094 77.738281 187.140625 77.738281 C 186.289062 77.738281 185.4375 77.78125 184.585938 77.863281 C 183.738281 77.945312 182.894531 78.070312 182.058594 78.238281 C 181.21875 78.402344 180.394531 78.609375 179.574219 78.859375 C 178.757812 79.105469 177.957031 79.390625 177.167969 79.71875 C 176.378906 80.042969 175.609375 80.40625 174.855469 80.808594 C 174.101562 81.210938 173.371094 81.648438 172.660156 82.121094 C 171.949219 82.59375 171.265625 83.101562 170.605469 83.640625 C 169.945312 84.183594 169.3125 84.753906 168.707031 85.355469 C 167.800781 86.269531 166.816406 87.082031 165.746094 87.796875 C 164.675781 88.511719 163.550781 89.113281 162.359375 89.605469 C 161.171875 90.09375 159.945312 90.460938 158.683594 90.707031 C 157.421875 90.953125 156.148438 91.074219 154.863281 91.066406 C 154.007812 91.066406 153.15625 91.109375 152.308594 91.195312 C 151.460938 91.277344 150.617188 91.402344 149.78125 91.570312 C 148.941406 91.738281 148.117188 91.945312 147.300781 92.195312 C 146.484375 92.441406 145.679688 92.730469 144.894531 93.058594 C 144.105469 93.382812 143.335938 93.75 142.582031 94.152344 C 141.828125 94.554688 141.097656 94.992188 140.390625 95.464844 C 139.679688 95.941406 138.996094 96.449219 138.335938 96.988281 C 137.675781 97.53125 137.042969 98.101562 136.441406 98.707031 C 135.835938 99.308594 135.265625 99.941406 134.722656 100.597656 C 134.183594 101.257812 133.675781 101.941406 133.199219 102.652344 C 132.726562 103.359375 132.289062 104.089844 131.882812 104.84375 C 131.480469 105.59375 131.117188 106.363281 130.789062 107.152344 C 130.464844 107.941406 130.175781 108.742188 129.925781 109.558594 C 129.679688 110.375 129.46875 111.199219 129.304688 112.039062 C 129.136719 112.875 129.011719 113.714844 128.925781 114.566406 C 128.839844 115.414062 128.796875 116.265625 128.796875 117.117188 C 128.800781 118.402344 128.683594 119.675781 128.433594 120.9375 C 128.1875 122.199219 127.820312 123.421875 127.328125 124.609375 C 126.839844 125.796875 126.238281 126.925781 125.523438 127.992188 C 124.808594 129.0625 123.996094 130.050781 123.085938 130.957031 C 122.488281 131.5625 121.917969 132.195312 121.382812 132.855469 C 120.84375 133.515625 120.34375 134.199219 119.875 134.910156 C 119.402344 135.617188 118.96875 136.347656 118.574219 137.101562 C 118.175781 137.851562 117.816406 138.621094 117.492188 139.410156 C 117.171875 140.195312 116.886719 141 116.644531 141.8125 C 116.402344 142.628906 116.199219 143.453125 116.035156 144.289062 C 115.871094 145.125 115.75 145.964844 115.671875 146.8125 C 115.589844 147.65625 115.550781 148.507812 115.554688 149.355469 C 115.558594 150.207031 115.605469 151.054688 115.691406 151.902344 C 115.777344 152.75 115.90625 153.589844 116.074219 154.421875 C 116.242188 155.253906 116.453125 156.078125 116.699219 156.890625 C 116.949219 157.707031 117.238281 158.503906 117.566406 159.289062 C 117.894531 160.074219 118.261719 160.839844 118.664062 161.589844 C 119.066406 162.339844 119.507812 163.066406 119.980469 163.773438 C 120.457031 164.480469 120.964844 165.160156 121.507812 165.816406 C 122.046875 166.472656 122.621094 167.101562 123.222656 167.699219 C 124.132812 168.609375 124.941406 169.597656 125.652344 170.667969 C 126.367188 171.734375 126.96875 172.863281 127.457031 174.050781 C 127.949219 175.238281 128.316406 176.460938 128.566406 177.722656 C 128.8125 178.984375 128.9375 180.253906 128.933594 181.539062 C 128.933594 183.046875 129.0625 184.546875 129.320312 186.03125 C 129.578125 187.519531 129.964844 188.972656 130.472656 190.390625 C 130.984375 191.8125 131.613281 193.175781 132.363281 194.488281 C 133.109375 195.796875 133.96875 197.03125 134.929688 198.195312 C 135.894531 199.355469 136.949219 200.425781 138.097656 201.40625 C 139.246094 202.382812 140.472656 203.253906 141.773438 204.019531 C 143.074219 204.785156 144.429688 205.433594 145.84375 205.964844 C 147.257812 206.492188 148.707031 206.898438 150.1875 207.175781 L 123.914062 270.527344 C 123.824219 270.773438 123.765625 271.023438 123.734375 271.285156 C 123.703125 271.546875 123.703125 271.804688 123.734375 272.066406 C 123.765625 272.324219 123.828125 272.578125 123.921875 272.824219 C 124.011719 273.070312 124.132812 273.300781 124.28125 273.515625 C 124.425781 273.734375 124.597656 273.929688 124.792969 274.105469 C 124.988281 274.28125 125.199219 274.433594 125.429688 274.558594 C 125.660156 274.683594 125.902344 274.777344 126.15625 274.84375 C 126.40625 274.914062 126.664062 274.949219 126.925781 274.953125 L 127.550781 274.953125 L 187.226562 263.363281 L 246.90625 274.953125 L 247.527344 274.953125 C 248.546875 274.925781 249.390625 274.519531 250.054688 273.742188 C 250.46875 273.265625 250.71875 272.710938 250.808594 272.085938 C 250.894531 271.457031 250.804688 270.859375 250.539062 270.285156 L 224.195312 207.175781 C 225.683594 206.902344 227.136719 206.5 228.554688 205.972656 C 229.972656 205.445312 231.332031 204.800781 232.640625 204.039062 C 233.945312 203.273438 235.175781 202.402344 236.328125 201.425781 C 237.484375 200.449219 238.542969 199.378906 239.511719 198.214844 C 240.480469 197.054688 241.339844 195.816406 242.09375 194.507812 C 242.84375 193.195312 243.480469 191.828125 243.996094 190.40625 C 244.507812 188.984375 244.898438 187.53125 245.160156 186.042969 C 245.421875 184.550781 245.554688 183.050781 245.554688 181.539062 Z M 219.417969 201.121094 C 217.707031 201.117188 216.011719 201.28125 214.328125 201.609375 C 212.648438 201.941406 211.015625 202.433594 209.433594 203.085938 C 207.851562 203.738281 206.347656 204.539062 204.921875 205.492188 C 203.496094 206.441406 202.179688 207.523438 200.96875 208.734375 C 200.515625 209.1875 200.042969 209.617188 199.546875 210.027344 C 199.050781 210.433594 198.539062 210.816406 198.003906 211.171875 C 197.472656 211.527344 196.921875 211.859375 196.355469 212.160156 C 195.789062 212.464844 195.210938 212.738281 194.617188 212.984375 C 194.027344 213.230469 193.421875 213.445312 192.808594 213.632812 C 192.195312 213.816406 191.574219 213.972656 190.945312 214.097656 C 190.316406 214.222656 189.683594 214.320312 189.042969 214.382812 C 188.40625 214.445312 187.765625 214.476562 187.125 214.476562 C 186.480469 214.476562 185.84375 214.445312 185.203125 214.382812 C 184.566406 214.320312 183.929688 214.222656 183.300781 214.097656 C 182.671875 213.972656 182.050781 213.816406 181.4375 213.632812 C 180.824219 213.445312 180.222656 213.230469 179.628906 212.984375 C 179.035156 212.738281 178.457031 212.464844 177.890625 212.160156 C 177.324219 211.859375 176.777344 211.527344 176.242188 211.171875 C 175.710938 210.816406 175.195312 210.433594 174.699219 210.027344 C 174.203125 209.617188 173.730469 209.1875 173.277344 208.734375 C 172.070312 207.523438 170.757812 206.441406 169.335938 205.488281 C 167.914062 204.539062 166.414062 203.738281 164.832031 203.082031 C 163.253906 202.429688 161.621094 201.9375 159.945312 201.609375 C 158.265625 201.277344 156.574219 201.117188 154.863281 201.121094 C 154.222656 201.117188 153.585938 201.078125 152.953125 201.011719 C 152.320312 200.945312 151.6875 200.847656 151.0625 200.714844 C 150.441406 200.585938 149.824219 200.429688 149.214844 200.238281 C 148.605469 200.050781 148.003906 199.832031 147.417969 199.582031 C 146.828125 199.335938 146.253906 199.058594 145.695312 198.753906 C 145.132812 198.449219 144.589844 198.121094 144.058594 197.761719 C 143.53125 197.40625 143.023438 197.023438 142.53125 196.617188 C 142.039062 196.207031 141.570312 195.777344 141.121094 195.324219 C 140.671875 194.871094 140.246094 194.398438 139.84375 193.90625 C 139.4375 193.410156 139.0625 192.898438 138.707031 192.367188 C 138.355469 191.832031 138.03125 191.285156 137.730469 190.722656 C 137.429688 190.160156 137.160156 189.582031 136.917969 188.992188 C 136.675781 188.402344 136.460938 187.804688 136.277344 187.191406 C 136.09375 186.582031 135.9375 185.964844 135.816406 185.339844 C 135.691406 184.714844 135.597656 184.082031 135.535156 183.449219 C 135.472656 182.8125 135.441406 182.175781 135.441406 181.539062 C 135.449219 179.828125 135.285156 178.136719 134.957031 176.460938 C 134.625 174.78125 134.132812 173.152344 133.480469 171.574219 C 132.828125 169.992188 132.023438 168.492188 131.074219 167.074219 C 130.121094 165.652344 129.039062 164.339844 127.828125 163.132812 C 127.375 162.679688 126.941406 162.207031 126.535156 161.710938 C 126.128906 161.214844 125.746094 160.703125 125.386719 160.167969 C 125.03125 159.636719 124.703125 159.085938 124.398438 158.523438 C 124.097656 157.957031 123.820312 157.378906 123.574219 156.785156 C 123.328125 156.191406 123.113281 155.589844 122.925781 154.976562 C 122.742188 154.363281 122.585938 153.742188 122.460938 153.113281 C 122.332031 152.484375 122.238281 151.851562 122.175781 151.210938 C 122.113281 150.574219 122.082031 149.933594 122.082031 149.292969 C 122.082031 148.652344 122.113281 148.011719 122.175781 147.375 C 122.238281 146.738281 122.332031 146.101562 122.460938 145.472656 C 122.585938 144.84375 122.742188 144.222656 122.925781 143.609375 C 123.113281 142.996094 123.328125 142.394531 123.574219 141.800781 C 123.820312 141.210938 124.097656 140.632812 124.398438 140.066406 C 124.703125 139.5 125.03125 138.953125 125.386719 138.417969 C 125.746094 137.886719 126.128906 137.371094 126.535156 136.875 C 126.941406 136.382812 127.375 135.90625 127.828125 135.453125 C 129.039062 134.246094 130.125 132.929688 131.074219 131.507812 C 132.027344 130.082031 132.832031 128.578125 133.484375 126.996094 C 134.136719 125.414062 134.628906 123.78125 134.960938 122.101562 C 135.289062 120.421875 135.449219 118.726562 135.441406 117.011719 C 135.445312 116.375 135.476562 115.734375 135.539062 115.101562 C 135.605469 114.464844 135.699219 113.832031 135.824219 113.203125 C 135.949219 112.578125 136.105469 111.957031 136.292969 111.347656 C 136.480469 110.734375 136.695312 110.132812 136.941406 109.542969 C 137.1875 108.953125 137.460938 108.375 137.761719 107.8125 C 138.066406 107.25 138.394531 106.703125 138.75 106.167969 C 139.105469 105.636719 139.488281 105.125 139.894531 104.632812 C 140.300781 104.136719 140.730469 103.664062 141.183594 103.214844 C 141.636719 102.761719 142.109375 102.332031 142.605469 101.929688 C 143.101562 101.523438 143.613281 101.140625 144.144531 100.789062 C 144.679688 100.433594 145.226562 100.105469 145.789062 99.804688 C 146.355469 99.503906 146.933594 99.230469 147.523438 98.984375 C 148.117188 98.742188 148.71875 98.527344 149.328125 98.339844 C 149.941406 98.15625 150.5625 98 151.1875 97.875 C 151.816406 97.75 152.449219 97.65625 153.085938 97.59375 C 153.722656 97.53125 154.359375 97.5 155 97.5 C 156.710938 97.507812 158.40625 97.34375 160.082031 97.015625 C 161.761719 96.683594 163.390625 96.191406 164.972656 95.539062 C 166.550781 94.886719 168.050781 94.082031 169.472656 93.132812 C 170.894531 92.179688 172.210938 91.101562 173.414062 89.886719 C 173.867188 89.433594 174.34375 89.003906 174.839844 88.597656 C 175.335938 88.1875 175.847656 87.808594 176.382812 87.449219 C 176.914062 87.09375 177.464844 86.765625 178.03125 86.460938 C 178.59375 86.160156 179.175781 85.882812 179.765625 85.640625 C 180.359375 85.394531 180.960938 85.175781 181.578125 84.992188 C 182.191406 84.804688 182.8125 84.648438 183.441406 84.523438 C 184.070312 84.398438 184.703125 84.304688 185.34375 84.242188 C 185.980469 84.175781 186.621094 84.144531 187.261719 84.144531 C 187.902344 84.144531 188.542969 84.175781 189.183594 84.242188 C 189.820312 84.304688 190.453125 84.398438 191.082031 84.523438 C 191.710938 84.648438 192.335938 84.804688 192.949219 84.992188 C 193.5625 85.175781 194.164062 85.394531 194.757812 85.640625 C 195.351562 85.882812 195.929688 86.160156 196.496094 86.460938 C 197.058594 86.765625 197.609375 87.09375 198.140625 87.449219 C 198.675781 87.808594 199.191406 88.1875 199.683594 88.597656 C 200.179688 89.003906 200.65625 89.433594 201.109375 89.886719 C 202.304688 91.101562 203.609375 92.183594 205.023438 93.140625 C 206.433594 94.097656 207.925781 94.90625 209.496094 95.566406 C 211.066406 96.230469 212.6875 96.730469 214.359375 97.074219 C 216.027344 97.417969 217.714844 97.59375 219.417969 97.605469 C 220.058594 97.605469 220.695312 97.636719 221.332031 97.699219 C 221.96875 97.765625 222.597656 97.859375 223.226562 97.984375 C 223.851562 98.109375 224.472656 98.265625 225.082031 98.453125 C 225.695312 98.636719 226.296875 98.855469 226.886719 99.097656 C 227.476562 99.34375 228.050781 99.617188 228.617188 99.917969 C 229.179688 100.21875 229.726562 100.546875 230.257812 100.902344 C 230.789062 101.257812 231.300781 101.636719 231.796875 102.042969 C 232.289062 102.449219 232.761719 102.878906 233.214844 103.328125 C 233.667969 103.78125 234.09375 104.253906 234.5 104.746094 C 234.90625 105.242188 235.285156 105.753906 235.640625 106.285156 C 235.996094 106.816406 236.324219 107.363281 236.628906 107.925781 C 236.929688 108.488281 237.203125 109.066406 237.449219 109.65625 C 237.691406 110.246094 237.910156 110.847656 238.09375 111.457031 C 238.28125 112.066406 238.4375 112.6875 238.5625 113.3125 C 238.6875 113.9375 238.78125 114.570312 238.84375 115.207031 C 238.910156 115.839844 238.941406 116.480469 238.941406 117.117188 C 238.9375 118.828125 239.097656 120.527344 239.425781 122.207031 C 239.757812 123.886719 240.246094 125.519531 240.902344 127.101562 C 241.554688 128.683594 242.359375 130.1875 243.308594 131.609375 C 244.261719 133.035156 245.34375 134.351562 246.558594 135.558594 C 247.015625 136.011719 247.449219 136.484375 247.855469 136.976562 C 248.265625 137.472656 248.648438 137.984375 249.007812 138.519531 C 249.367188 139.050781 249.699219 139.597656 250.003906 140.164062 C 250.308594 140.730469 250.582031 141.308594 250.832031 141.902344 C 251.078125 142.492188 251.296875 143.097656 251.484375 143.710938 C 251.671875 144.324219 251.828125 144.945312 251.953125 145.574219 C 252.078125 146.203125 252.175781 146.839844 252.238281 147.476562 C 252.300781 148.117188 252.332031 148.753906 252.332031 149.398438 C 252.332031 150.039062 252.300781 150.679688 252.238281 151.320312 C 252.175781 151.957031 252.078125 152.589844 251.953125 153.21875 C 251.828125 153.851562 251.671875 154.472656 251.484375 155.085938 C 251.296875 155.699219 251.078125 156.300781 250.832031 156.894531 C 250.582031 157.488281 250.308594 158.066406 250.003906 158.632812 C 249.699219 159.195312 249.367188 159.746094 249.007812 160.277344 C 248.648438 160.808594 248.265625 161.324219 247.855469 161.816406 C 247.449219 162.3125 247.015625 162.785156 246.558594 163.238281 C 245.359375 164.441406 244.289062 165.746094 243.347656 167.160156 C 242.40625 168.574219 241.609375 170.066406 240.960938 171.636719 C 240.316406 173.207031 239.828125 174.824219 239.5 176.492188 C 239.171875 178.160156 239.007812 179.839844 239.011719 181.539062 C 239.011719 182.179688 238.980469 182.820312 238.917969 183.457031 C 238.855469 184.097656 238.761719 184.730469 238.636719 185.359375 C 238.511719 185.988281 238.355469 186.609375 238.167969 187.222656 C 237.980469 187.835938 237.765625 188.441406 237.519531 189.035156 C 237.273438 189.625 237 190.207031 236.699219 190.769531 C 236.394531 191.335938 236.066406 191.886719 235.710938 192.417969 C 235.355469 192.953125 234.972656 193.46875 234.566406 193.960938 C 234.15625 194.457031 233.726562 194.933594 233.273438 195.386719 C 232.820312 195.839844 232.34375 196.269531 231.847656 196.675781 C 231.351562 197.082031 230.839844 197.464844 230.304688 197.820312 C 229.769531 198.179688 229.222656 198.507812 228.65625 198.808594 C 228.089844 199.113281 227.511719 199.386719 226.917969 199.632812 C 226.324219 199.878906 225.722656 200.09375 225.105469 200.277344 C 224.492188 200.464844 223.871094 200.621094 223.242188 200.746094 C 222.613281 200.871094 221.980469 200.964844 221.339844 201.027344 C 220.703125 201.089844 220.0625 201.121094 219.417969 201.121094 Z M 183.972656 240.011719 L 183.972656 257.308594 L 159.328125 262.152344 L 168.777344 236.136719 C 168.925781 235.730469 168.992188 235.316406 168.976562 234.886719 C 168.957031 234.453125 168.859375 234.042969 168.675781 233.65625 C 168.496094 233.265625 168.246094 232.925781 167.925781 232.636719 C 167.605469 232.34375 167.246094 232.128906 166.839844 231.984375 C 166.480469 231.847656 166.113281 231.777344 165.730469 231.777344 C 165.050781 231.800781 164.433594 232.007812 163.875 232.394531 C 163.316406 232.785156 162.910156 233.292969 162.652344 233.921875 L 151.851562 263.605469 L 132.292969 267.414062 L 157.113281 207.765625 C 159.320312 208.003906 161.429688 208.601562 163.4375 209.554688 C 165.441406 210.511719 167.234375 211.769531 168.8125 213.335938 C 169.414062 213.941406 170.046875 214.511719 170.707031 215.054688 C 171.367188 215.597656 172.050781 216.105469 172.757812 216.582031 C 173.46875 217.058594 174.199219 217.496094 174.953125 217.898438 C 175.707031 218.300781 176.476562 218.667969 177.265625 218.996094 C 178.054688 219.320312 178.859375 219.609375 179.675781 219.859375 C 180.492188 220.105469 181.320312 220.3125 182.15625 220.480469 C 182.996094 220.648438 183.839844 220.773438 184.6875 220.855469 C 185.539062 220.941406 186.390625 220.980469 187.246094 220.980469 C 188.097656 220.980469 188.949219 220.941406 189.800781 220.855469 C 190.652344 220.773438 191.496094 220.648438 192.332031 220.480469 C 193.167969 220.3125 193.996094 220.105469 194.8125 219.859375 C 195.632812 219.609375 196.433594 219.320312 197.222656 218.996094 C 198.011719 218.667969 198.78125 218.300781 199.535156 217.898438 C 200.289062 217.496094 201.019531 217.058594 201.730469 216.582031 C 202.4375 216.105469 203.125 215.597656 203.785156 215.054688 C 204.441406 214.511719 205.074219 213.941406 205.675781 213.335938 C 207.25 211.773438 209.035156 210.515625 211.039062 209.5625 C 213.039062 208.605469 215.140625 208.007812 217.34375 207.765625 L 242.195312 267.414062 L 222.605469 263.605469 L 211.804688 233.921875 C 211.691406 233.609375 211.53125 233.320312 211.332031 233.054688 C 211.128906 232.789062 210.890625 232.5625 210.617188 232.371094 C 210.347656 232.179688 210.050781 232.03125 209.734375 231.929688 C 209.417969 231.828125 209.089844 231.777344 208.757812 231.777344 C 208.367188 231.78125 207.984375 231.851562 207.617188 231.984375 C 207.210938 232.128906 206.847656 232.34375 206.527344 232.636719 C 206.210938 232.925781 205.960938 233.265625 205.777344 233.65625 C 205.597656 234.042969 205.496094 234.453125 205.480469 234.886719 C 205.460938 235.316406 205.527344 235.730469 205.675781 236.136719 L 215.128906 262.152344 L 190.515625 257.34375 L 190.515625 240.046875 C 190.539062 239.816406 190.539062 239.585938 190.515625 239.359375 C 190.488281 239.128906 190.441406 238.90625 190.371094 238.6875 C 190.300781 238.46875 190.207031 238.261719 190.089844 238.0625 C 189.976562 237.863281 189.839844 237.675781 189.6875 237.507812 C 189.53125 237.335938 189.363281 237.183594 189.175781 237.046875 C 188.988281 236.914062 188.789062 236.796875 188.582031 236.707031 C 188.371094 236.613281 188.152344 236.542969 187.925781 236.492188 C 187.703125 236.445312 187.476562 236.421875 187.246094 236.421875 C 187.015625 236.421875 186.785156 236.445312 186.5625 236.492188 C 186.335938 236.542969 186.117188 236.613281 185.910156 236.707031 C 185.699219 236.796875 185.5 236.914062 185.3125 237.046875 C 185.128906 237.183594 184.957031 237.335938 184.804688 237.507812 C 184.648438 237.675781 184.515625 237.863281 184.398438 238.0625 C 184.285156 238.261719 184.191406 238.46875 184.117188 238.6875 C 184.046875 238.90625 184 239.128906 183.976562 239.359375 C 183.949219 239.585938 183.949219 239.816406 183.972656 240.046875 Z M 183.972656 240.011719 " fill-opacity="1" fill-rule="nonzero"/><path fill="#231f20" d="M 208.34375 128.5 C 207.832031 128.191406 207.277344 128.042969 206.679688 128.050781 C 206.105469 128.050781 205.570312 128.191406 205.066406 128.476562 C 204.566406 128.757812 204.171875 129.148438 203.878906 129.640625 L 181.898438 166.523438 L 166.390625 146.941406 C 166.078125 146.554688 165.695312 146.253906 165.246094 146.042969 C 164.796875 145.828125 164.324219 145.726562 163.828125 145.730469 C 163.074219 145.722656 162.40625 145.953125 161.820312 146.421875 C 161.476562 146.691406 161.199219 147.015625 160.988281 147.394531 C 160.777344 147.777344 160.644531 148.183594 160.597656 148.613281 C 160.546875 149.046875 160.585938 149.472656 160.707031 149.890625 C 160.828125 150.308594 161.027344 150.683594 161.300781 151.023438 L 179.714844 174.238281 C 180.386719 175.027344 181.242188 175.429688 182.277344 175.449219 L 182.484375 175.449219 C 183.023438 175.417969 183.523438 175.257812 183.980469 174.976562 C 184.441406 174.695312 184.808594 174.324219 185.082031 173.859375 L 209.484375 133.101562 C 209.699219 132.71875 209.839844 132.308594 209.898438 131.871094 C 209.957031 131.433594 209.933594 131.003906 209.828125 130.574219 C 209.71875 130.148438 209.539062 129.753906 209.28125 129.394531 C 209.027344 129.039062 208.714844 128.738281 208.34375 128.5 Z M 208.34375 128.5 " fill-opacity="1" fill-rule="nonzero"/><path fill="#231f20" d="M 187.226562 101.964844 C 185.675781 101.964844 184.125 102.039062 182.578125 102.191406 C 181.035156 102.34375 179.5 102.570312 177.976562 102.875 C 176.453125 103.175781 174.949219 103.554688 173.460938 104.003906 C 171.976562 104.453125 170.515625 104.976562 169.078125 105.570312 C 167.644531 106.164062 166.242188 106.828125 164.871094 107.558594 C 163.503906 108.292969 162.171875 109.089844 160.878906 109.953125 C 159.589844 110.8125 158.34375 111.738281 157.140625 112.722656 C 155.941406 113.707031 154.792969 114.75 153.695312 115.847656 C 152.597656 116.945312 151.554688 118.09375 150.570312 119.292969 C 149.582031 120.492188 148.660156 121.738281 147.796875 123.027344 C 146.933594 124.320312 146.136719 125.648438 145.402344 127.019531 C 144.671875 128.386719 144.007812 129.789062 143.414062 131.222656 C 142.820312 132.65625 142.296875 134.117188 141.847656 135.605469 C 141.394531 137.089844 141.019531 138.59375 140.714844 140.117188 C 140.414062 141.636719 140.183594 143.171875 140.03125 144.71875 C 139.878906 146.261719 139.804688 147.8125 139.804688 149.363281 C 139.804688 150.914062 139.878906 152.464844 140.03125 154.007812 C 140.183594 155.554688 140.414062 157.085938 140.714844 158.609375 C 141.019531 160.132812 141.394531 161.636719 141.847656 163.121094 C 142.296875 164.609375 142.820312 166.066406 143.414062 167.503906 C 144.007812 168.9375 144.671875 170.339844 145.402344 171.707031 C 146.136719 173.078125 146.933594 174.40625 147.796875 175.695312 C 148.660156 176.988281 149.582031 178.234375 150.570312 179.433594 C 151.554688 180.632812 152.597656 181.78125 153.695312 182.878906 C 154.792969 183.976562 155.941406 185.019531 157.140625 186.003906 C 158.34375 186.988281 159.589844 187.910156 160.878906 188.773438 C 162.171875 189.636719 163.503906 190.433594 164.871094 191.164062 C 166.242188 191.898438 167.644531 192.5625 169.078125 193.15625 C 170.515625 193.75 171.976562 194.269531 173.460938 194.722656 C 174.949219 195.171875 176.453125 195.550781 177.976562 195.851562 C 179.5 196.15625 181.035156 196.382812 182.578125 196.535156 C 184.125 196.6875 185.675781 196.761719 187.226562 196.761719 C 188.78125 196.761719 190.328125 196.6875 191.875 196.535156 C 193.421875 196.382812 194.957031 196.15625 196.480469 195.851562 C 198.003906 195.550781 199.507812 195.171875 200.992188 194.722656 C 202.480469 194.269531 203.941406 193.75 205.375 193.15625 C 206.808594 192.5625 208.210938 191.898438 209.582031 191.164062 C 210.953125 190.433594 212.28125 189.636719 213.574219 188.773438 C 214.867188 187.910156 216.113281 186.988281 217.3125 186.003906 C 218.511719 185.019531 219.664062 183.976562 220.761719 182.878906 C 221.859375 181.78125 222.902344 180.632812 223.886719 179.433594 C 224.871094 178.234375 225.796875 176.988281 226.660156 175.695312 C 227.519531 174.40625 228.320312 173.078125 229.050781 171.707031 C 229.78125 170.339844 230.445312 168.9375 231.039062 167.503906 C 231.636719 166.066406 232.15625 164.609375 232.609375 163.121094 C 233.058594 161.636719 233.4375 160.132812 233.738281 158.609375 C 234.042969 157.085938 234.269531 155.554688 234.421875 154.007812 C 234.574219 152.464844 234.652344 150.914062 234.652344 149.363281 C 234.648438 147.8125 234.570312 146.261719 234.414062 144.71875 C 234.261719 143.175781 234.03125 141.640625 233.726562 140.121094 C 233.421875 138.597656 233.046875 137.097656 232.59375 135.613281 C 232.140625 134.125 231.617188 132.667969 231.023438 131.234375 C 230.425781 129.800781 229.761719 128.402344 229.03125 127.03125 C 228.296875 125.664062 227.5 124.335938 226.636719 123.046875 C 225.773438 121.753906 224.851562 120.511719 223.863281 119.3125 C 222.878906 118.113281 221.839844 116.964844 220.742188 115.867188 C 219.644531 114.769531 218.492188 113.726562 217.292969 112.742188 C 216.09375 111.757812 214.847656 110.835938 213.558594 109.972656 C 212.265625 109.109375 210.9375 108.3125 209.570312 107.582031 C 208.199219 106.847656 206.796875 106.183594 205.363281 105.589844 C 203.929688 104.996094 202.472656 104.472656 200.984375 104.019531 C 199.5 103.566406 197.996094 103.191406 196.472656 102.886719 C 194.953125 102.582031 193.417969 102.351562 191.875 102.199219 C 190.328125 102.042969 188.78125 101.964844 187.226562 101.964844 Z M 187.226562 190.222656 C 185.886719 190.222656 184.554688 190.15625 183.21875 190.027344 C 181.886719 189.894531 180.566406 189.699219 179.253906 189.4375 C 177.9375 189.175781 176.640625 188.851562 175.359375 188.464844 C 174.078125 188.074219 172.820312 187.625 171.582031 187.113281 C 170.347656 186.601562 169.136719 186.03125 167.957031 185.398438 C 166.777344 184.769531 165.628906 184.082031 164.515625 183.335938 C 163.402344 182.59375 162.328125 181.796875 161.292969 180.949219 C 160.257812 180.101562 159.265625 179.203125 158.320312 178.257812 C 157.375 177.308594 156.476562 176.320312 155.625 175.285156 C 154.777344 174.25 153.980469 173.175781 153.234375 172.0625 C 152.492188 170.953125 151.804688 169.804688 151.171875 168.625 C 150.542969 167.445312 149.972656 166.234375 149.457031 165 C 148.945312 163.761719 148.496094 162.503906 148.105469 161.222656 C 147.71875 159.945312 147.394531 158.648438 147.132812 157.335938 C 146.871094 156.023438 146.675781 154.699219 146.542969 153.367188 C 146.414062 152.035156 146.347656 150.703125 146.347656 149.363281 C 146.347656 148.023438 146.414062 146.691406 146.542969 145.359375 C 146.675781 144.027344 146.871094 142.703125 147.132812 141.390625 C 147.394531 140.078125 147.71875 138.78125 148.105469 137.5 C 148.496094 136.222656 148.945312 134.960938 149.457031 133.726562 C 149.972656 132.488281 150.542969 131.28125 151.171875 130.101562 C 151.804688 128.921875 152.492188 127.773438 153.234375 126.660156 C 153.980469 125.550781 154.777344 124.476562 155.625 123.441406 C 156.476562 122.40625 157.375 121.417969 158.320312 120.46875 C 159.265625 119.523438 160.257812 118.625 161.292969 117.777344 C 162.328125 116.929688 163.402344 116.132812 164.515625 115.386719 C 165.628906 114.644531 166.777344 113.957031 167.957031 113.328125 C 169.136719 112.695312 170.347656 112.125 171.582031 111.613281 C 172.820312 111.101562 174.078125 110.648438 175.359375 110.261719 C 176.640625 109.875 177.9375 109.546875 179.253906 109.289062 C 180.566406 109.027344 181.886719 108.832031 183.21875 108.699219 C 184.554688 108.566406 185.886719 108.503906 187.226562 108.503906 C 188.566406 108.503906 189.902344 108.566406 191.234375 108.699219 C 192.566406 108.832031 193.890625 109.027344 195.203125 109.289062 C 196.515625 109.546875 197.8125 109.875 199.09375 110.261719 C 200.375 110.648438 201.636719 111.101562 202.871094 111.613281 C 204.109375 112.125 205.316406 112.695312 206.5 113.328125 C 207.679688 113.957031 208.828125 114.644531 209.941406 115.386719 C 211.054688 116.132812 212.125 116.929688 213.160156 117.777344 C 214.195312 118.625 215.1875 119.523438 216.132812 120.46875 C 217.082031 121.417969 217.980469 122.40625 218.828125 123.441406 C 219.679688 124.476562 220.476562 125.550781 221.21875 126.660156 C 221.960938 127.773438 222.648438 128.921875 223.28125 130.101562 C 223.914062 131.28125 224.484375 132.488281 224.996094 133.726562 C 225.507812 134.960938 225.960938 136.222656 226.347656 137.5 C 226.738281 138.78125 227.0625 140.078125 227.324219 141.390625 C 227.582031 142.703125 227.78125 144.027344 227.910156 145.359375 C 228.042969 146.691406 228.109375 148.023438 228.109375 149.363281 C 228.105469 150.699219 228.039062 152.035156 227.90625 153.367188 C 227.773438 154.695312 227.574219 156.019531 227.3125 157.328125 C 227.046875 158.640625 226.722656 159.9375 226.332031 161.214844 C 225.941406 162.496094 225.492188 163.753906 224.976562 164.988281 C 224.464844 166.222656 223.890625 167.433594 223.261719 168.609375 C 222.628906 169.789062 221.941406 170.9375 221.199219 172.046875 C 220.453125 173.160156 219.65625 174.230469 218.808594 175.265625 C 217.957031 176.300781 217.0625 177.289062 216.113281 178.234375 C 215.167969 179.179688 214.175781 180.078125 213.144531 180.925781 C 212.109375 181.777344 211.035156 182.574219 209.921875 183.316406 C 208.8125 184.058594 207.664062 184.746094 206.484375 185.378906 C 205.304688 186.011719 204.097656 186.582031 202.859375 187.09375 C 201.625 187.609375 200.367188 188.058594 199.085938 188.449219 C 197.804688 188.839844 196.511719 189.164062 195.199219 189.425781 C 193.886719 189.691406 192.5625 189.886719 191.230469 190.019531 C 189.902344 190.152344 188.566406 190.222656 187.226562 190.222656 Z M 187.226562 190.222656 " fill-opacity="1" fill-rule="nonzero"/></svg>