<svg xmlns="http://www.w3.org/2000/svg" xmlns:xlink="http://www.w3.org/1999/xlink" width="500" zoomAndPan="magnify" viewBox="0 0 375 374.999991" height="500" preserveAspectRatio="xMidYMid meet" version="1.0"><defs><clipPath id="baaf8cd51d"><path d="M 20.054688 15.761719 L 355.304688 15.761719 L 355.304688 355 L 20.054688 355 Z M 20.054688 15.761719 " clip-rule="nonzero"/></clipPath></defs><g clip-path="url(#baaf8cd51d)"><path fill="#278d46" d="M 355.292969 183.605469 C 355.292969 276.269531 280.257812 351.390625 187.699219 351.390625 C 180.949219 351.402344 174.222656 351.003906 167.523438 350.195312 C 160.820312 349.390625 154.191406 348.179688 147.636719 346.566406 C 141.082031 344.957031 134.648438 342.953125 128.335938 340.558594 C 122.023438 338.164062 115.878906 335.394531 109.902344 332.253906 C 109.835938 332.285156 109.769531 332.3125 109.703125 332.339844 L 59.1875 353.359375 C 43.378906 359.933594 27.4375 344.277344 33.699219 328.328125 L 51.914062 281.96875 C 46.765625 274.863281 42.203125 267.398438 38.230469 259.574219 C 34.253906 251.75 30.917969 243.664062 28.21875 235.3125 C 25.515625 226.960938 23.488281 218.449219 22.128906 209.777344 C 20.765625 201.105469 20.09375 192.382812 20.109375 183.605469 C 20.109375 90.9375 95.140625 15.816406 187.699219 15.816406 C 280.257812 15.816406 355.292969 90.9375 355.292969 183.605469 Z M 355.292969 183.605469 " fill-opacity="1" fill-rule="nonzero"/></g><path fill="#ffffff" d="M 333.546875 183.605469 C 333.546875 185.992188 333.488281 188.382812 333.371094 190.769531 C 333.253906 193.15625 333.078125 195.539062 332.84375 197.914062 C 332.609375 200.292969 332.320312 202.664062 331.96875 205.027344 C 331.617188 207.394531 331.210938 209.746094 330.746094 212.089844 C 330.277344 214.433594 329.757812 216.765625 329.175781 219.082031 C 328.597656 221.402344 327.960938 223.703125 327.265625 225.992188 C 326.574219 228.277344 325.824219 230.546875 325.019531 232.796875 C 324.21875 235.046875 323.359375 237.273438 322.445312 239.480469 C 321.53125 241.691406 320.566406 243.875 319.542969 246.035156 C 318.523438 248.195312 317.449219 250.328125 316.324219 252.4375 C 315.199219 254.542969 314.023438 256.621094 312.796875 258.671875 C 311.570312 260.722656 310.292969 262.738281 308.96875 264.726562 C 307.640625 266.714844 306.265625 268.667969 304.84375 270.585938 C 303.421875 272.503906 301.957031 274.390625 300.441406 276.234375 C 298.925781 278.082031 297.367188 279.890625 295.765625 281.664062 C 294.164062 283.433594 292.515625 285.164062 290.828125 286.855469 C 289.140625 288.542969 287.414062 290.191406 285.644531 291.796875 C 283.875 293.398438 282.070312 294.960938 280.222656 296.476562 C 278.378906 297.992188 276.5 299.460938 274.582031 300.886719 C 272.664062 302.308594 270.714844 303.683594 268.726562 305.011719 C 266.742188 306.339844 264.726562 307.617188 262.679688 308.847656 C 260.632812 310.074219 258.558594 311.253906 256.453125 312.378906 C 254.347656 313.507812 252.214844 314.582031 250.058594 315.601562 C 247.898438 316.625 245.71875 317.589844 243.511719 318.507812 C 241.308594 319.421875 239.082031 320.28125 236.835938 321.085938 C 234.585938 321.890625 232.320312 322.640625 230.039062 323.332031 C 227.753906 324.027344 225.453125 324.664062 223.136719 325.246094 C 220.824219 325.824219 218.496094 326.347656 216.152344 326.816406 C 213.8125 327.28125 211.460938 327.691406 209.101562 328.039062 C 206.738281 328.390625 204.371094 328.683594 201.996094 328.917969 C 199.621094 329.152344 197.242188 329.328125 194.855469 329.445312 C 192.472656 329.5625 190.085938 329.621094 187.699219 329.621094 C 185.3125 329.621094 182.929688 329.5625 180.542969 329.445312 C 178.160156 329.328125 175.78125 329.152344 173.40625 328.917969 C 171.03125 328.683594 168.660156 328.390625 166.300781 328.039062 C 163.9375 327.691406 161.589844 327.28125 159.246094 326.816406 C 156.90625 326.347656 154.578125 325.824219 152.261719 325.246094 C 149.945312 324.664062 147.648438 324.027344 145.363281 323.332031 C 143.078125 322.640625 140.8125 321.890625 138.566406 321.085938 C 136.320312 320.28125 134.09375 319.421875 131.886719 318.507812 C 129.683594 317.589844 127.5 316.625 125.34375 315.601562 C 123.183594 314.582031 121.054688 313.507812 118.949219 312.378906 C 116.84375 311.253906 114.765625 310.074219 112.71875 308.847656 C 110.671875 307.617188 108.65625 306.339844 106.671875 305.011719 C 104.6875 303.683594 102.738281 302.308594 100.820312 300.886719 C 98.902344 299.460938 97.019531 297.992188 95.175781 296.476562 C 93.332031 294.960938 91.523438 293.398438 89.753906 291.796875 C 87.988281 290.191406 86.257812 288.542969 84.570312 286.855469 C 82.882812 285.164062 81.238281 283.433594 79.636719 281.664062 C 78.03125 279.890625 76.472656 278.082031 74.960938 276.234375 C 73.445312 274.390625 71.976562 272.503906 70.554688 270.585938 C 69.132812 268.667969 67.757812 266.714844 66.433594 264.726562 C 65.105469 262.738281 63.832031 260.722656 62.601562 258.671875 C 61.375 256.621094 60.199219 254.542969 59.074219 252.4375 C 57.949219 250.328125 56.875 248.195312 55.855469 246.035156 C 54.835938 243.875 53.867188 241.691406 52.957031 239.480469 C 52.042969 237.273438 51.183594 235.046875 50.378906 232.796875 C 49.574219 230.546875 48.828125 228.277344 48.132812 225.992188 C 47.441406 223.703125 46.804688 221.402344 46.222656 219.082031 C 45.644531 216.765625 45.121094 214.433594 44.65625 212.089844 C 44.191406 209.746094 43.78125 207.394531 43.433594 205.027344 C 43.082031 202.664062 42.789062 200.292969 42.554688 197.914062 C 42.320312 195.539062 42.144531 193.15625 42.027344 190.769531 C 41.910156 188.382812 41.851562 185.992188 41.851562 183.605469 C 41.851562 181.214844 41.910156 178.824219 42.027344 176.4375 C 42.144531 174.050781 42.320312 171.667969 42.554688 169.292969 C 42.789062 166.914062 43.082031 164.542969 43.433594 162.179688 C 43.78125 159.816406 44.191406 157.460938 44.65625 155.117188 C 45.121094 152.773438 45.644531 150.441406 46.222656 148.125 C 46.804688 145.804688 47.441406 143.503906 48.132812 141.21875 C 48.828125 138.929688 49.574219 136.660156 50.378906 134.410156 C 51.183594 132.160156 52.042969 129.933594 52.957031 127.726562 C 53.867188 125.515625 54.835938 123.332031 55.855469 121.171875 C 56.875 119.011719 57.949219 116.878906 59.074219 114.773438 C 60.199219 112.664062 61.375 110.585938 62.601562 108.535156 C 63.832031 106.484375 65.105469 104.46875 66.433594 102.480469 C 67.757812 100.492188 69.132812 98.539062 70.554688 96.621094 C 71.976562 94.703125 73.445312 92.820312 74.960938 90.972656 C 76.472656 89.125 78.03125 87.316406 79.636719 85.542969 C 81.238281 83.773438 82.882812 82.042969 84.570312 80.355469 C 86.257812 78.664062 87.988281 77.015625 89.753906 75.410156 C 91.523438 73.808594 93.332031 72.246094 95.175781 70.730469 C 97.019531 69.214844 98.902344 67.746094 100.820312 66.320312 C 102.738281 64.898438 104.6875 63.523438 106.671875 62.195312 C 108.65625 60.867188 110.671875 59.589844 112.71875 58.359375 C 114.765625 57.132812 116.84375 55.953125 118.949219 54.828125 C 121.054688 53.703125 123.183594 52.628906 125.34375 51.605469 C 127.5 50.582031 129.683594 49.617188 131.886719 48.699219 C 134.09375 47.785156 136.320312 46.925781 138.566406 46.121094 C 140.8125 45.316406 143.078125 44.566406 145.363281 43.875 C 147.648438 43.179688 149.945312 42.542969 152.261719 41.960938 C 154.578125 41.382812 156.90625 40.859375 159.246094 40.390625 C 161.589844 39.925781 163.9375 39.515625 166.300781 39.167969 C 168.660156 38.816406 171.03125 38.523438 173.40625 38.289062 C 175.78125 38.054688 178.160156 37.878906 180.542969 37.761719 C 182.929688 37.644531 185.3125 37.585938 187.699219 37.585938 C 190.085938 37.585938 192.472656 37.644531 194.855469 37.761719 C 197.242188 37.878906 199.621094 38.054688 201.996094 38.289062 C 204.371094 38.523438 206.738281 38.816406 209.101562 39.167969 C 211.460938 39.515625 213.8125 39.925781 216.152344 40.390625 C 218.496094 40.859375 220.824219 41.382812 223.136719 41.960938 C 225.453125 42.542969 227.753906 43.179688 230.039062 43.875 C 232.320312 44.566406 234.585938 45.316406 236.835938 46.121094 C 239.082031 46.925781 241.308594 47.785156 243.511719 48.699219 C 245.71875 49.617188 247.898438 50.582031 250.058594 51.605469 C 252.214844 52.628906 254.347656 53.703125 256.453125 54.828125 C 258.558594 55.953125 260.632812 57.132812 262.679688 58.359375 C 264.726562 59.589844 266.742188 60.867188 268.726562 62.195312 C 270.714844 63.523438 272.664062 64.898438 274.582031 66.320312 C 276.5 67.746094 278.378906 69.214844 280.222656 70.730469 C 282.070312 72.246094 283.875 73.808594 285.644531 75.410156 C 287.414062 77.015625 289.140625 78.664062 290.828125 80.355469 C 292.515625 82.042969 294.164062 83.773438 295.765625 85.542969 C 297.367188 87.316406 298.925781 89.125 300.441406 90.972656 C 301.957031 92.820312 303.421875 94.703125 304.84375 96.621094 C 306.265625 98.539062 307.640625 100.492188 308.96875 102.480469 C 310.292969 104.46875 311.570312 106.484375 312.796875 108.535156 C 314.023438 110.585938 315.199219 112.664062 316.324219 114.773438 C 317.449219 116.878906 318.523438 119.011719 319.542969 121.171875 C 320.566406 123.332031 321.53125 125.515625 322.445312 127.726562 C 323.359375 129.933594 324.21875 132.160156 325.019531 134.410156 C 325.824219 136.660156 326.574219 138.929688 327.265625 141.21875 C 327.960938 143.503906 328.597656 145.804688 329.175781 148.125 C 329.757812 150.441406 330.277344 152.773438 330.746094 155.117188 C 331.210938 157.460938 331.617188 159.816406 331.96875 162.179688 C 332.320312 164.542969 332.609375 166.914062 332.84375 169.292969 C 333.078125 171.667969 333.253906 174.050781 333.371094 176.4375 C 333.488281 178.824219 333.546875 181.214844 333.546875 183.605469 Z M 333.546875 183.605469 " fill-opacity="1" fill-rule="nonzero"/><path fill="#278d46" d="M 313.121094 183.605469 C 313.121094 185.660156 313.070312 187.710938 312.96875 189.765625 C 312.867188 191.816406 312.71875 193.867188 312.515625 195.910156 C 312.316406 197.957031 312.0625 199.996094 311.761719 202.027344 C 311.460938 204.0625 311.109375 206.085938 310.710938 208.101562 C 310.308594 210.117188 309.859375 212.121094 309.359375 214.113281 C 308.863281 216.105469 308.316406 218.085938 307.71875 220.054688 C 307.125 222.019531 306.480469 223.972656 305.789062 225.90625 C 305.097656 227.839844 304.359375 229.757812 303.574219 231.65625 C 302.789062 233.554688 301.957031 235.433594 301.078125 237.289062 C 300.199219 239.148438 299.277344 240.984375 298.308594 242.796875 C 297.34375 244.609375 296.332031 246.394531 295.277344 248.15625 C 294.222656 249.921875 293.125 251.65625 291.984375 253.363281 C 290.84375 255.074219 289.660156 256.753906 288.4375 258.402344 C 287.214844 260.054688 285.953125 261.671875 284.652344 263.261719 C 283.347656 264.851562 282.007812 266.40625 280.628906 267.929688 C 279.25 269.453125 277.835938 270.9375 276.386719 272.390625 C 274.933594 273.84375 273.449219 275.261719 271.925781 276.640625 C 270.40625 278.023438 268.851562 279.363281 267.265625 280.667969 C 265.679688 281.972656 264.0625 283.234375 262.414062 284.460938 C 260.765625 285.683594 259.085938 286.867188 257.378906 288.007812 C 255.671875 289.148438 253.9375 290.25 252.179688 291.304688 C 250.417969 292.363281 248.632812 293.375 246.824219 294.34375 C 245.011719 295.3125 243.179688 296.234375 241.324219 297.113281 C 239.46875 297.992188 237.59375 298.824219 235.695312 299.613281 C 233.800781 300.398438 231.886719 301.136719 229.953125 301.828125 C 228.019531 302.523438 226.070312 303.167969 224.109375 303.761719 C 222.144531 304.359375 220.164062 304.90625 218.175781 305.40625 C 216.183594 305.90625 214.179688 306.355469 212.167969 306.757812 C 210.15625 307.15625 208.132812 307.507812 206.101562 307.8125 C 204.074219 308.113281 202.035156 308.363281 199.992188 308.566406 C 197.949219 308.765625 195.90625 308.917969 193.855469 309.019531 C 191.804688 309.121094 189.753906 309.167969 187.699219 309.167969 C 185.648438 309.167969 183.597656 309.121094 181.546875 309.019531 C 179.496094 308.917969 177.449219 308.765625 175.40625 308.566406 C 173.363281 308.363281 171.328125 308.113281 169.296875 307.8125 C 167.265625 307.507812 165.246094 307.15625 163.230469 306.757812 C 161.21875 306.355469 159.21875 305.90625 157.226562 305.40625 C 155.234375 304.90625 153.257812 304.359375 151.292969 303.761719 C 149.328125 303.167969 147.378906 302.523438 145.449219 301.828125 C 143.515625 301.136719 141.601562 300.398438 139.703125 299.613281 C 137.808594 298.824219 135.933594 297.992188 134.078125 297.113281 C 132.222656 296.234375 130.386719 295.3125 128.578125 294.34375 C 126.769531 293.375 124.980469 292.363281 123.222656 291.304688 C 121.460938 290.25 119.726562 289.148438 118.019531 288.007812 C 116.3125 286.867188 114.636719 285.683594 112.988281 284.460938 C 111.339844 283.234375 109.722656 281.972656 108.136719 280.667969 C 106.546875 279.363281 104.996094 278.023438 103.472656 276.640625 C 101.953125 275.261719 100.464844 273.84375 99.015625 272.390625 C 97.5625 270.9375 96.148438 269.453125 94.769531 267.929688 C 93.390625 266.40625 92.050781 264.851562 90.75 263.261719 C 89.449219 261.671875 88.183594 260.054688 86.960938 258.402344 C 85.738281 256.753906 84.558594 255.074219 83.417969 253.363281 C 82.277344 251.65625 81.179688 249.921875 80.125 248.15625 C 79.070312 246.394531 78.058594 244.609375 77.089844 242.796875 C 76.121094 240.984375 75.199219 239.148438 74.324219 237.289062 C 73.445312 235.433594 72.613281 233.554688 71.828125 231.65625 C 71.042969 229.757812 70.304688 227.839844 69.613281 225.90625 C 68.921875 223.972656 68.277344 222.019531 67.679688 220.054688 C 67.085938 218.085938 66.539062 216.105469 66.039062 214.113281 C 65.539062 212.121094 65.089844 210.117188 64.691406 208.101562 C 64.289062 206.085938 63.941406 204.0625 63.636719 202.027344 C 63.335938 199.996094 63.085938 197.957031 62.882812 195.910156 C 62.683594 193.867188 62.53125 191.816406 62.433594 189.765625 C 62.332031 187.710938 62.28125 185.660156 62.28125 183.605469 C 62.28125 181.546875 62.332031 179.496094 62.433594 177.441406 C 62.53125 175.390625 62.683594 173.339844 62.882812 171.296875 C 63.085938 169.25 63.335938 167.210938 63.636719 165.179688 C 63.941406 163.148438 64.289062 161.121094 64.691406 159.105469 C 65.089844 157.089844 65.539062 155.085938 66.039062 153.09375 C 66.539062 151.101562 67.085938 149.121094 67.679688 147.152344 C 68.277344 145.1875 68.921875 143.238281 69.613281 141.300781 C 70.304688 139.367188 71.042969 137.449219 71.828125 135.550781 C 72.613281 133.652344 73.445312 131.773438 74.324219 129.917969 C 75.199219 128.058594 76.121094 126.222656 77.089844 124.414062 C 78.058594 122.601562 79.070312 120.8125 80.125 119.050781 C 81.179688 117.285156 82.277344 115.550781 83.417969 113.84375 C 84.558594 112.132812 85.738281 110.453125 86.960938 108.804688 C 88.183594 107.152344 89.449219 105.535156 90.75 103.945312 C 92.050781 102.355469 93.390625 100.800781 94.769531 99.277344 C 96.148438 97.757812 97.5625 96.269531 99.015625 94.816406 C 100.464844 93.363281 101.953125 91.945312 103.472656 90.566406 C 104.996094 89.183594 106.546875 87.84375 108.136719 86.539062 C 109.722656 85.234375 111.339844 83.972656 112.988281 82.746094 C 114.636719 81.523438 116.3125 80.339844 118.019531 79.199219 C 119.726562 78.058594 121.460938 76.957031 123.222656 75.902344 C 124.980469 74.84375 126.769531 73.832031 128.578125 72.863281 C 130.386719 71.894531 132.222656 70.972656 134.078125 70.09375 C 135.933594 69.214844 137.808594 68.382812 139.703125 67.59375 C 141.601562 66.808594 143.515625 66.070312 145.449219 65.378906 C 147.378906 64.683594 149.328125 64.039062 151.292969 63.445312 C 153.257812 62.847656 155.234375 62.300781 157.226562 61.800781 C 159.21875 61.300781 161.21875 60.851562 163.230469 60.449219 C 165.246094 60.050781 167.265625 59.699219 169.296875 59.398438 C 171.328125 59.09375 173.363281 58.84375 175.40625 58.640625 C 177.449219 58.441406 179.496094 58.289062 181.546875 58.1875 C 183.597656 58.085938 185.648438 58.039062 187.699219 58.039062 C 189.753906 58.039062 191.804688 58.085938 193.855469 58.1875 C 195.90625 58.289062 197.949219 58.441406 199.992188 58.640625 C 202.035156 58.84375 204.074219 59.09375 206.101562 59.398438 C 208.132812 59.699219 210.15625 60.050781 212.167969 60.449219 C 214.179688 60.851562 216.183594 61.300781 218.175781 61.800781 C 220.164062 62.300781 222.144531 62.847656 224.109375 63.445312 C 226.070312 64.039062 228.019531 64.683594 229.953125 65.378906 C 231.886719 66.070312 233.800781 66.808594 235.695312 67.59375 C 237.59375 68.382812 239.46875 69.214844 241.324219 70.09375 C 243.179688 70.972656 245.011719 71.894531 246.824219 72.863281 C 248.632812 73.832031 250.417969 74.84375 252.179688 75.902344 C 253.9375 76.957031 255.671875 78.058594 257.378906 79.199219 C 259.085938 80.339844 260.765625 81.523438 262.414062 82.746094 C 264.0625 83.972656 265.679688 85.234375 267.265625 86.539062 C 268.851562 87.84375 270.40625 89.183594 271.925781 90.566406 C 273.449219 91.945312 274.933594 93.363281 276.386719 94.816406 C 277.835938 96.269531 279.25 97.757812 280.628906 99.277344 C 282.007812 100.800781 283.347656 102.355469 284.652344 103.945312 C 285.953125 105.535156 287.214844 107.152344 288.4375 108.804688 C 289.660156 110.453125 290.84375 112.132812 291.984375 113.84375 C 293.125 115.550781 294.222656 117.285156 295.277344 119.050781 C 296.332031 120.8125 297.34375 122.601562 298.308594 124.414062 C 299.277344 126.222656 300.199219 128.058594 301.078125 129.917969 C 301.957031 131.773438 302.789062 133.652344 303.574219 135.550781 C 304.359375 137.449219 305.097656 139.367188 305.789062 141.300781 C 306.480469 143.238281 307.125 145.1875 307.71875 147.152344 C 308.316406 149.121094 308.863281 151.101562 309.359375 153.09375 C 309.859375 155.085938 310.308594 157.089844 310.710938 159.105469 C 311.109375 161.121094 311.460938 163.148438 311.761719 165.179688 C 312.0625 167.210938 312.316406 169.25 312.515625 171.296875 C 312.71875 173.339844 312.867188 175.390625 312.96875 177.441406 C 313.070312 179.496094 313.121094 181.546875 313.121094 183.605469 Z M 313.121094 183.605469 " fill-opacity="1" fill-rule="nonzero"/><path fill="#ffffff" d="M 171.597656 142.585938 L 166.714844 121.953125 C 166.574219 121.367188 166.40625 120.789062 166.207031 120.21875 C 166.007812 119.648438 165.777344 119.09375 165.519531 118.546875 C 165.261719 118 164.972656 117.472656 164.660156 116.957031 C 164.347656 116.441406 164.003906 115.941406 163.640625 115.464844 C 163.273438 114.984375 162.882812 114.527344 162.464844 114.089844 C 162.050781 113.648438 161.613281 113.234375 161.15625 112.84375 C 160.699219 112.449219 160.21875 112.082031 159.722656 111.742188 C 159.226562 111.402344 158.710938 111.085938 158.183594 110.796875 C 157.652344 110.511719 157.109375 110.253906 156.550781 110.023438 C 155.992188 109.792969 155.425781 109.59375 154.847656 109.421875 C 154.269531 109.25 153.683594 109.113281 153.089844 109.003906 C 152.496094 108.894531 151.898438 108.820312 151.296875 108.773438 C 150.695312 108.726562 150.09375 108.714844 149.492188 108.730469 C 148.890625 108.75 148.289062 108.800781 147.691406 108.882812 C 147.09375 108.960938 146.503906 109.074219 145.917969 109.21875 C 145.332031 109.363281 144.753906 109.535156 144.1875 109.742188 L 132.933594 113.796875 C 132.023438 114.125 131.144531 114.53125 130.304688 115.007812 C 129.460938 115.484375 128.664062 116.027344 127.914062 116.640625 C 127.164062 117.25 126.46875 117.921875 125.832031 118.648438 C 125.195312 119.378906 124.621094 120.15625 124.117188 120.980469 C 123.609375 121.808594 123.175781 122.667969 122.816406 123.570312 C 122.457031 124.46875 122.171875 125.390625 121.96875 126.335938 C 121.761719 127.285156 121.636719 128.242188 121.59375 129.210938 C 121.550781 130.175781 121.589844 131.140625 121.707031 132.101562 C 125.632812 164.011719 143.6875 241.207031 226.730469 258.167969 C 227.550781 258.335938 228.375 258.441406 229.210938 258.488281 C 230.046875 258.535156 230.882812 258.519531 231.714844 258.445312 C 232.546875 258.371094 233.371094 258.234375 234.183594 258.039062 C 234.996094 257.84375 235.792969 257.589844 236.570312 257.277344 C 237.34375 256.964844 238.09375 256.597656 238.816406 256.175781 C 239.539062 255.753906 240.230469 255.28125 240.882812 254.761719 C 241.535156 254.238281 242.148438 253.671875 242.71875 253.058594 C 243.292969 252.445312 243.816406 251.796875 244.292969 251.109375 L 250.753906 241.765625 C 251.074219 241.300781 251.367188 240.824219 251.640625 240.332031 C 251.914062 239.839844 252.164062 239.335938 252.386719 238.816406 C 252.613281 238.300781 252.808594 237.773438 252.980469 237.238281 C 253.152344 236.703125 253.300781 236.160156 253.417969 235.609375 C 253.535156 235.058594 253.628906 234.503906 253.691406 233.945312 C 253.757812 233.386719 253.792969 232.824219 253.804688 232.261719 C 253.8125 231.699219 253.792969 231.136719 253.746094 230.574219 C 253.703125 230.015625 253.628906 229.457031 253.527344 228.902344 C 253.425781 228.347656 253.300781 227.800781 253.144531 227.257812 C 252.992188 226.71875 252.8125 226.183594 252.605469 225.660156 C 252.398438 225.136719 252.164062 224.625 251.910156 224.125 C 251.652344 223.625 251.371094 223.136719 251.066406 222.664062 C 250.761719 222.191406 250.433594 221.734375 250.085938 221.292969 C 249.734375 220.851562 249.367188 220.429688 248.972656 220.023438 C 248.582031 219.617188 248.171875 219.234375 247.746094 218.871094 C 247.316406 218.503906 246.871094 218.164062 246.40625 217.84375 L 246.296875 217.765625 L 232.101562 208.089844 C 231.335938 207.570312 230.535156 207.113281 229.699219 206.722656 C 228.863281 206.332031 228 206.007812 227.109375 205.757812 C 226.222656 205.503906 225.320312 205.328125 224.402344 205.222656 C 223.484375 205.113281 222.5625 205.082031 221.640625 205.125 C 220.71875 205.167969 219.804688 205.285156 218.902344 205.476562 C 217.996094 205.667969 217.113281 205.929688 216.253906 206.261719 C 215.390625 206.59375 214.5625 206.996094 213.761719 207.460938 C 212.964844 207.929688 212.210938 208.457031 211.5 209.046875 C 210.792969 209.632812 210.042969 210.15625 209.25 210.625 C 208.460938 211.089844 207.636719 211.488281 206.78125 211.824219 C 205.925781 212.15625 205.046875 212.417969 204.148438 212.609375 C 203.253906 212.804688 202.34375 212.921875 201.429688 212.96875 C 200.511719 213.015625 199.597656 212.988281 198.683594 212.886719 C 197.769531 212.785156 196.871094 212.613281 195.988281 212.367188 C 195.101562 212.121094 194.242188 211.808594 193.410156 211.421875 C 192.574219 211.039062 191.777344 210.589844 191.011719 210.078125 C 182.375 204.253906 170.6875 194.59375 163.09375 181.199219 C 162.667969 180.453125 162.300781 179.679688 161.992188 178.878906 C 161.679688 178.078125 161.433594 177.257812 161.246094 176.417969 C 161.058594 175.578125 160.933594 174.730469 160.871094 173.871094 C 160.8125 173.015625 160.816406 172.15625 160.882812 171.300781 C 160.949219 170.445312 161.082031 169.597656 161.273438 168.757812 C 161.46875 167.921875 161.722656 167.105469 162.039062 166.304688 C 162.355469 165.503906 162.730469 164.734375 163.160156 163.992188 C 163.59375 163.25 164.078125 162.542969 164.613281 161.871094 L 168.265625 157.324219 C 169.085938 156.304688 169.78125 155.203125 170.351562 154.023438 C 170.917969 152.847656 171.347656 151.617188 171.636719 150.339844 C 171.925781 149.0625 172.066406 147.769531 172.058594 146.460938 C 172.050781 145.152344 171.898438 143.859375 171.597656 142.585938 Z M 171.597656 142.585938 " fill-opacity="1" fill-rule="nonzero"/></svg>